<svg width="1000" height="1000" viewBox="0 0 1000 1000" fill="none" xmlns="http://www.w3.org/2000/svg">
<g clip-path="url(#clip0_2189_120)">
<path d="M800.441 599.72C800.879 599.72 801.168 599.934 801.597 599.955C801.59 599.955 801.602 599.955 801.597 599.955C804.437 599.955 806.759 600.718 809.065 601.471C919.748 590.642 1000 550.02 1000 500.057C1000 441.718 891.117 396.149 751.816 395.715C850.097 297.004 894.691 187.685 853.556 146.446C812.319 105.316 703.002 149.91 604.291 248.188C603.857 108.885 558.291 0 499.949 0C441.716 0 396.04 108.885 395.607 248.081C296.786 149.91 187.578 105.316 146.448 146.446C105.207 187.685 149.796 297.004 248.081 395.715C108.781 396.149 0 441.715 0 500.057C0 558.18 108.781 603.965 247.967 604.396C234.545 617.818 222.213 631.564 211.062 645.202C211.038 645.223 211.027 645.242 211.011 645.263C210.749 645.307 210.486 645.335 210.22 645.363C208.535 649.429 205.667 652.812 201.797 655.229C201.433 655.518 201.17 655.912 200.774 656.169C200.102 656.714 199.589 657.414 198.953 657.994C198.179 660.123 197.011 662.027 195.584 663.755C194.467 666.277 192.961 668.527 190.984 670.474C191.063 670.469 191.143 670.471 191.224 670.464C134.318 748.054 114.306 821.524 146.453 853.557C187.583 894.796 296.79 850.202 395.611 752.034C396.045 891.224 441.721 1000 499.953 1000C558.186 1000 603.862 891.224 604.295 752.034C703.117 850.204 812.324 894.798 853.561 853.557C885.908 821.212 865.257 746.87 807.326 668.52C806.58 667.734 805.533 667.252 804.929 666.322C804.467 665.811 804.383 665.079 803.989 664.529C803.961 664.501 803.933 664.475 803.91 664.447C803.437 663.944 803.096 663.324 802.642 662.794C802.733 663.007 802.819 663.219 802.91 663.431C802.74 663.02 802.472 662.668 802.25 662.286C801.318 661.153 800.292 660.076 799.585 658.803C798.907 657.595 798.373 656.297 797.725 655.071C797.133 653.959 796.501 652.895 795.876 651.821C792.023 649.445 789.183 646.097 787.474 642.087C787.264 641.756 786.859 641.584 786.665 641.239C785.355 640.327 784.024 639.437 783.068 638.208C773.5 626.833 762.988 615.559 751.928 604.396C764.667 604.357 776.932 603.674 789.078 602.867C792.253 601.039 795.883 599.72 800.441 599.72ZM610.24 256.739C703.005 163.98 784.073 142.55 820.768 179.241C857.457 215.934 836.027 297.004 743.269 389.761C741.208 391.817 739.155 393.766 737.101 395.82C695.106 396.688 656.242 401.665 622.582 409.89C613.385 397.662 602.342 386.838 589.899 377.853C598.124 344.083 603.321 305.117 604.186 262.906C606.24 260.847 608.184 258.793 610.24 256.739ZM624.531 499.948C624.531 568.785 568.791 624.528 499.949 624.528C431.106 624.528 375.366 568.785 375.366 499.948C375.366 431.11 431.111 375.365 499.949 375.365C568.786 375.365 624.531 431.108 624.531 499.948ZM499.951 46.3262C551.798 46.3262 594.007 118.845 594.007 250.027C594.007 252.951 594.007 255.872 593.9 258.793C593.9 263.99 593.69 269.074 593.576 274.057C592.063 309.556 587.514 342.57 580.588 371.684C557.859 357.831 531.235 349.713 502.548 349.713C472.024 349.713 443.668 358.915 419.967 374.607C412.602 344.843 407.734 310.75 406.329 274.057C406.221 268.967 406.005 263.88 406.005 258.686C405.897 255.872 405.897 252.951 405.897 250.027C405.897 118.843 448.104 46.3262 499.951 46.3262ZM179.134 179.241C215.829 142.548 296.897 163.98 389.655 256.739C391.709 258.796 393.662 260.852 395.716 262.908C396.581 306.528 401.995 346.683 410.765 381.319C399.724 389.761 389.979 399.828 381.754 410.976C347.119 402.208 306.64 396.688 262.801 395.823C260.741 393.766 258.687 391.817 256.633 389.764C163.873 297.004 142.445 215.931 179.134 179.241ZM46.219 500.055C46.219 448.208 118.738 405.997 249.921 405.997C252.84 405.997 255.765 405.997 258.687 406.104C263.883 406.104 268.973 406.321 274.06 406.538H274.167C311.072 407.946 345.49 412.814 375.476 420.283C361.082 443.338 352.526 470.505 352.526 499.728C352.526 529.169 361.189 556.445 375.8 579.607C368.008 581.556 359.891 583.396 351.558 585.018C341.923 586.86 332.071 588.373 321.789 589.672C306.524 591.621 290.507 592.919 273.95 593.567C268.861 593.784 263.774 594.001 258.577 594.001C255.765 594.108 252.84 594.108 249.921 594.108C118.736 594.108 46.219 551.899 46.219 500.055ZM389.655 743.37C296.895 836.13 215.827 857.562 179.134 820.866C150.458 792.193 157.273 736.469 205.725 669.171C205.76 669.168 205.8 669.168 205.833 669.161C206.266 668.728 206.59 668.294 206.914 667.753C212.652 659.852 219.037 651.734 226.073 643.509C226.507 642.861 227.046 642.318 227.586 641.67C227.547 641.679 227.5 641.686 227.456 641.698C227.479 641.675 227.495 641.654 227.519 641.628C236.285 631.347 246.023 620.846 256.633 610.239C258.687 608.183 260.64 606.236 262.694 604.287C278.17 603.963 293.214 603.096 307.722 601.687L307.859 601.671C307.836 601.69 307.82 601.711 307.797 601.727C320.997 600.429 333.768 598.806 346 596.64C346.024 596.621 346.052 596.593 346.075 596.572C358.683 594.414 370.652 591.826 382.19 588.914C390.312 599.955 400.05 609.803 410.87 618.247C401.997 652.884 396.584 693.363 395.719 737.199C393.665 739.258 391.709 741.316 389.655 743.37ZM499.951 953.783C448.104 953.783 405.895 881.267 405.895 750.082C405.895 747.159 405.895 744.238 406.002 741.424C406.002 736.229 406.219 731.142 406.326 726.055C407.732 689.146 412.598 654.835 419.965 624.964C443.665 640.549 472.021 649.748 502.546 649.748C531.124 649.748 557.75 641.63 580.478 627.778C587.405 657.001 592.06 690.337 593.576 726.055C593.69 731.142 593.9 736.229 593.9 741.424C594.007 744.238 594.007 747.159 594.007 750.082C594.007 881.267 551.798 953.783 499.951 953.783ZM763.077 631.237L763.184 631.344L766.753 635.242C774.868 644.442 782.236 653.425 788.941 662.3V662.407C789.486 662.951 789.812 663.38 790.137 663.92C842.2 733.518 850.208 791.424 820.77 820.864C784.075 857.56 703.007 836.127 610.243 743.368C608.189 741.312 606.242 739.255 604.186 737.199C603.321 694.771 598.124 655.59 589.785 621.602C602.125 612.836 612.952 602.226 622.046 590.105C640.333 594.651 660.14 598.116 681.353 600.496H681.388C681.4 600.508 681.412 600.522 681.428 600.536H681.535C693.334 601.944 705.567 603.026 718.121 603.567C718.105 603.555 718.086 603.539 718.074 603.529C724.341 603.958 730.722 604.177 737.096 604.285C739.15 606.341 741.206 608.29 743.265 610.344C750.301 617.38 756.908 624.308 763.077 631.237ZM749.979 594.111C747.06 594.111 744.134 594.111 741.323 594.003C736.126 594.003 730.93 593.787 725.84 593.57H725.733C718.59 593.246 711.446 592.922 704.52 592.381C693.376 591.513 682.442 590.322 671.939 588.916C656.674 586.753 642.28 584.046 628.649 580.908C643.8 557.422 652.673 529.602 652.673 499.728C652.673 470.071 643.907 442.471 629.075 419.201C657.87 412.382 690.558 407.946 725.733 406.538H725.84C730.93 406.321 736.017 406.104 741.208 406.104C744.134 405.997 747.06 405.997 749.979 405.997C881.157 405.997 953.681 448.208 953.681 500.055C953.681 551.902 881.157 594.111 749.979 594.111Z" fill="#3E63CC"/>
<path d="M499.949 391.927C440.311 391.927 391.926 440.309 391.926 499.948C391.926 559.586 440.311 607.968 499.949 607.968C559.587 607.968 607.967 559.586 607.967 499.948C607.967 440.309 559.587 391.927 499.949 391.927Z" fill="#3E63CC"/>
</g>
<defs>
<clipPath id="clip0_2189_120">
<rect width="1000" height="1000" fill="white"/>
</clipPath>
</defs>
</svg>
