<svg width="32" height="32" viewBox="0 0 32 32" fill="none" xmlns="http://www.w3.org/2000/svg">
<g clip-path="url(#clip0_2239_384)">
<path d="M6.85714 10.2857C7.48833 10.2857 8 10.7974 8 11.4286V20.5714C8 21.2026 7.48833 21.7143 6.85714 21.7143H3.42857C2.51926 21.7143 1.64745 21.3528 1.00446 20.7098C0.361483 20.0668 0 19.195 0 18.2857V13.7143C0 12.805 0.361483 11.9332 1.00446 11.2902C1.64745 10.6472 2.51926 10.2857 3.42857 10.2857H6.85714ZM2.28571 18.2857C2.28571 18.5888 2.40621 18.8794 2.62054 19.0937C2.83486 19.3081 3.12547 19.4286 3.42857 19.4286H5.71429V12.5714H3.42857C3.12547 12.5714 2.83486 12.6919 2.62054 12.9062C2.40621 13.1206 2.28571 13.4112 2.28571 13.7143V18.2857Z" fill="#3E63CC"/>
<path d="M17.0269 3.46793C17.4784 3.43181 17.9315 3.48522 18.3595 3.62418L18.7791 3.79159L18.8573 3.834C19.3904 4.14176 19.8303 4.58748 20.1318 5.12418C20.4288 5.65295 20.5788 6.25026 20.5693 6.85633H20.5715V25.1688C20.557 25.8164 20.358 26.4459 20.0001 26.9858C19.647 27.5185 19.1522 27.9405 18.5715 28.2068C18.5637 28.2105 18.557 28.2165 18.5492 28.2202L18.547 28.2179C18.0085 28.4699 17.4145 28.5801 16.8215 28.5327C16.2198 28.4845 15.6417 28.2777 15.1452 27.9345L15.1273 27.9233L6.18984 21.4992L6.01574 21.3452C5.65618 20.9549 5.60738 20.3534 5.92868 19.9054C6.25105 19.4569 6.83863 19.3106 7.32377 19.5282L7.52467 19.6443L16.4555 26.0617C16.6186 26.1718 16.8082 26.2379 17.0046 26.2536C17.2048 26.2695 17.4059 26.233 17.5872 26.1465L17.6117 26.1353L17.7546 26.0595C17.8902 25.9738 18.0067 25.8593 18.0961 25.7246C18.2154 25.5446 18.281 25.3334 18.2858 25.1175V6.82954C18.2906 6.62443 18.2412 6.42136 18.1407 6.24249C18.0474 6.07642 17.9131 5.9375 17.7523 5.83624C17.5816 5.76274 17.3957 5.73215 17.2099 5.74695C17.0092 5.76301 16.8152 5.83106 16.6497 5.94561L7.5135 12.363C6.99719 12.7256 6.28487 12.6023 5.92199 12.0862C5.55916 11.5698 5.68453 10.8553 6.201 10.4925L15.3439 4.07061L15.3506 4.06615C15.8471 3.7227 16.4251 3.51614 17.0269 3.46793Z" fill="#3E63CC"/>
<path d="M27.8438 8.26114C28.2696 7.90977 28.8743 7.91863 29.288 8.25221L29.4532 8.41515L29.7746 8.8214C31.3245 10.8833 32.111 13.4244 31.9979 16.0111L32.0001 16.0134C31.9633 19.0401 31.1169 22.0022 29.5492 24.5915C29.2224 25.1313 28.5199 25.3043 27.98 24.9777C27.4402 24.6508 27.2672 23.9483 27.5938 23.4085C28.9503 21.1682 29.6824 18.6053 29.7144 15.9866L29.7166 15.9464C29.8151 13.8781 29.1853 11.8448 27.9465 10.1964L27.6898 9.87051L27.5626 9.67855C27.3128 9.20934 27.4183 8.61313 27.8438 8.26114Z" fill="#3E63CC"/>
<path d="M23.2722 11.6897C23.698 11.3384 24.3027 11.3472 24.7164 11.6808L24.8816 11.8437L25.2231 12.2991C25.9722 13.398 26.347 14.715 26.2834 16.0536C26.3282 17.5454 25.8342 19.0041 24.8816 20.1562C24.4796 20.6423 23.7586 20.7117 23.2722 20.3103C22.7862 19.9082 22.7168 19.1872 23.1182 18.7009C23.6549 18.0521 23.9644 17.2477 24.0022 16.4129V15.587C23.9697 14.8715 23.7381 14.179 23.3347 13.587L23.1182 13.2991L22.991 13.1071C22.7412 12.6379 22.8467 12.0417 23.2722 11.6897Z" fill="#3E63CC"/>
</g>
<defs>
<clipPath id="clip0_2239_384">
<rect width="32" height="32" fill="white"/>
</clipPath>
</defs>
</svg>
