<svg width="33" height="33" viewBox="0 0 33 33" fill="none" xmlns="http://www.w3.org/2000/svg">
<g clip-path="url(#clip0_2239_358)">
<path d="M30.8962 1.0848C31.3425 0.638483 32.0659 0.638483 32.5123 1.0848C32.9586 1.53111 32.9586 2.25455 32.5123 2.70087L2.79797 32.4152C2.35166 32.8615 1.62822 32.8615 1.1819 32.4152C0.73559 31.9688 0.73559 31.2454 1.1819 30.7991L9.51673 22.4643H7.70423C6.79491 22.4643 5.9231 22.1028 5.28012 21.4598C4.63714 20.8168 4.27565 19.945 4.27565 19.0357V14.4643C4.27565 13.5549 4.63714 12.6831 5.28012 12.0402C5.9231 11.3972 6.79491 11.0357 7.70423 11.0357H10.769L19.4989 4.82364L19.51 4.81471C20.0067 4.47105 20.5865 4.26689 21.1886 4.21872C21.6403 4.18259 22.093 4.23585 22.5212 4.37497L22.9609 4.55131C23.5263 4.83623 24.0031 5.27387 24.3359 5.81248C24.5906 6.22496 24.7524 6.68561 24.8158 7.16292L30.8962 1.0848ZM22.5614 16.75C22.5614 16.1188 23.073 15.6071 23.7042 15.6071C24.3354 15.6071 24.8471 16.1188 24.8471 16.75V25.9174C24.8327 26.5652 24.6337 27.1965 24.2757 27.7366C23.9226 28.2689 23.4273 28.6892 22.8471 28.9553L22.8493 28.9576C22.8449 28.9597 22.8381 28.9599 22.8337 28.962C22.8304 28.9635 22.8281 28.9672 22.8248 28.9687L22.8225 28.9665C22.2839 29.2187 21.6903 29.3287 21.0971 29.2812C20.4951 29.2331 19.9174 29.0266 19.4207 28.683L19.4029 28.6719L15.4252 25.8147C14.9135 25.4464 14.7966 24.7333 15.164 24.221C15.4863 23.7723 16.074 23.6263 16.5591 23.8437L16.76 23.9598L20.7198 26.8035C20.8854 26.9181 21.0794 26.9884 21.2801 27.0044C21.4805 27.0203 21.6813 26.9817 21.8627 26.8951L21.8873 26.8839L22.0301 26.808C22.1658 26.7222 22.2823 26.608 22.3716 26.4732C22.4907 26.2935 22.5564 26.0838 22.5614 25.8683V16.75ZM21.3716 6.49551C21.1709 6.51157 20.9769 6.58185 20.8114 6.6964L12.2757 12.7678V19.7053L22.5614 9.41962V7.61158L22.5502 7.4531C22.5281 7.29782 22.4747 7.14779 22.3917 7.01337C22.2829 6.83733 22.1267 6.69546 21.9431 6.60042C21.7645 6.5174 21.5681 6.47995 21.3716 6.49551ZM6.56137 19.0357L6.58369 19.2589C6.62751 19.4789 6.73527 19.6828 6.89619 19.8437C7.11052 20.0581 7.40112 20.1785 7.70423 20.1785H9.98994V13.3214H7.70423C7.40112 13.3214 7.11052 13.4419 6.89619 13.6562C6.68186 13.8706 6.56137 14.1612 6.56137 14.4643V19.0357Z" fill="#3E63CC"/>
</g>
<defs>
<clipPath id="clip0_2239_358">
<rect width="32" height="32" fill="white" transform="translate(0.847168 0.75)"/>
</clipPath>
</defs>
</svg>
